<?xml version="1.0"?>
<svg version="1.1" xmlns="http://www.w3.org/2000/svg" width="400" height="50" style=""><path fill="#ff349a" d="M16.07666015625,37.49267578125q0-0.63232421875,0.025634765625-1.854248046875t0.179443359375-2.486572265625t0.504150390625-2.2900390625t1.051025390625-1.31591796875q0.1708984375-0.068359375,0.555419921875-0.11962890625t0.76904296875-0.0341796875t0.68359375,0.13671875t0.299072265625,0.4443359375q0,0.068359375-0.068359375,0.18798828125t-0.35888671875,0.3759765625q-0.52978515625,1.4697265625-0.6494140625,2.92236328125t-0.11962890625,2.99072265625q0,0.90576171875,0.059814453125,1.8115234375t0.196533203125,1.82861328125q0.2734375-0.39306640625,0.555419921875-1.17919921875t0.59814453125-1.717529296875t0.6494140625-1.888427734375t0.751953125-1.7431640625t0.9228515625-1.298828125t1.136474609375-0.5126953125q0.70068359375,0,1.170654296875,0.880126953125t0.87158203125,2.03369140625t0.751953125,2.34130859375t0.845947265625,1.820068359375q0.2392578125-0.2392578125,0.384521484375-0.623779296875t0.230712890625-0.828857421875t0.1025390625-0.880126953125t0.01708984375-0.743408203125q0-0.76904296875-0.230712890625-1.666259765625t-0.487060546875-1.683349609375t-0.487060546875-1.324462890625t-0.230712890625-0.623779296875q0-0.13671875,0.145263671875-0.22216796875t0.333251953125-0.13671875t0.384521484375-0.068359375t0.299072265625-0.01708984375q0.63232421875,0,1.085205078125,0.70068359375t0.7177734375,1.62353515625t0.384521484375,1.871337890625t0.11962890625,1.478271484375q0,0.66650390625-0.1025390625,1.41845703125t-0.384521484375,1.392822265625t-0.828857421875,1.068115234375t-1.38427734375,0.42724609375q-1.00830078125,0-1.65771484375-0.56396484375t-1.051025390625-1.3671875t-0.63232421875-1.751708984375t-0.435791015625-1.717529296875q-0.39306640625,0.90576171875-0.7177734375,2.2900390625t-0.8203125,2.71728515625t-1.2646484375,2.27294921875t-1.99951171875,0.93994140625t-1.751708984375-0.606689453125t-0.828857421875-1.666259765625l0.0341796875,0.0341796875q-0.205078125-0.76904296875-0.264892578125-1.5380859375t-0.059814453125-1.5380859375z M33.724829101562,36.826171875q0-1.1962890625,0.264892578125-2.81982421875t0.897216796875-3.076171875t1.666259765625-2.469482421875t2.606201171875-1.016845703125q1.4697265625,0,2.20458984375,0.845947265625t0.73486328125,2.281494140625q0,0.93994140625-0.350341796875,2.059326171875t-0.999755859375,2.119140625t-1.5380859375,1.666259765625t-1.982421875,0.66650390625l-0.4443359375-0.0341796875q0,0.46142578125,0.13671875,1.239013671875t0.401611328125,1.546630859375t0.68359375,1.35009765625t1.016845703125,0.5810546875q0.87158203125,0,1.6748046875-0.70068359375t1.52099609375-1.55517578125t1.3330078125-1.55517578125t1.1279296875-0.70068359375q0.2734375,0,0.56396484375,0.08544921875t0.32470703125,0.478515625q0,0.2392578125-0.128173828125,0.39306640625t-0.230712890625,0.341796875q-0.52978515625,0.90576171875-1.153564453125,1.72607421875t-1.409912109375,1.48681640625t-1.717529296875,1.051025390625t-2.059326171875,0.384521484375q-1.4697265625,0-2.44384765625-0.521240234375t-1.572265625-1.4013671875t-0.863037109375-2.03369140625t-0.264892578125-2.418212890625z M36.783911132812,35.52734375l0.478515625,0.42724609375q0.341796875,0.3076171875,0.68359375,0.13671875t0.615234375-0.623779296875t0.504150390625-1.119384765625t0.41015625-1.3671875t0.264892578125-1.3671875t0.08544921875-1.11083984375l0-0.5810546875t-0.05126953125-0.615234375t-0.179443359375-0.487060546875t-0.401611328125-0.247802734375q-0.08544921875-0.01708984375-0.15380859375-0.01708984375q-0.5810546875,0-0.9912109375,0.73486328125q-0.4443359375,0.8203125-0.7177734375,1.990966796875t-0.39306640625,2.401123046875t-0.15380859375,1.845703125z M48.006298828125,31.15234375q0-1.1962890625,0.111083984375-3.1103515625t0.264892578125-3.94775390625t0.384521484375-3.853759765625t0.504150390625-2.794189453125q0.1025390625-0.42724609375,0.487060546875-0.5126953125t0.777587890625-0.08544921875q0.52978515625,0,0.914306640625,0.18798828125t0.384521484375,0.8203125q0,3.1103515625-0.384521484375,6.229248046875t-0.418701171875,6.229248046875q0.52978515625-0.80322265625,1.3671875-1.204833984375t1.77734375-0.401611328125q1.298828125,0,2.23876953125,0.52978515625t1.52099609375,1.3671875t0.863037109375,1.939697265625t0.281982421875,2.247314453125q0,0.63232421875-0.128173828125,1.580810546875t-0.384521484375,1.99951171875t-0.6494140625,2.0849609375t-0.931396484375,1.854248046875t-1.239013671875,1.324462890625t-1.5380859375,0.504150390625q-0.1708984375,0-0.452880859375-0.05126953125t-0.56396484375-0.15380859375t-0.469970703125-0.264892578125t-0.18798828125-0.401611328125q0-0.2734375,0.333251953125-0.384521484375t0.538330078125-0.111083984375q0.76904296875-0.341796875,1.3671875-1.427001953125t0.999755859375-2.384033203125t0.606689453125-2.572021484375t0.205078125-2.076416015625q0-0.46142578125-0.13671875-1.23046875t-0.418701171875-1.52099609375t-0.76904296875-1.298828125t-1.153564453125-0.546875q-0.80322265625,0-1.28173828125,0.828857421875t-0.751953125,1.93115234375t-0.367431640625,2.27294921875t-0.093994140625,1.837158203125q0,0.42724609375,0.145263671875,0.845947265625t0.333251953125,0.83740234375t0.333251953125,0.8544921875t0.145263671875,0.863037109375q0,0.205078125-0.179443359375,0.341796875t-0.418701171875,0.22216796875t-0.504150390625,0.111083984375t-0.401611328125,0.025634765625q-0.97412109375,0-1.35009765625-0.46142578125t-0.6494140625-1.298828125q-0.59814453125-1.89697265625-0.828857421875-3.853759765625t-0.230712890625-3.922119140625z M62.578295898437,31.71630859375q0-0.70068359375,0.41015625-1.204833984375t0.999755859375-0.8203125t1.290283203125-0.469970703125t1.298828125-0.15380859375q0.46142578125,0,1.23046875,0.13671875t1.50390625,0.41015625t1.273193359375,0.7177734375t0.538330078125,1.04248046875q0,0.2734375-0.205078125,0.487060546875t-0.42724609375,0.213623046875q-0.46142578125,0-0.83740234375-0.299072265625t-0.777587890625-0.63232421875t-0.880126953125-0.63232421875t-1.07666015625-0.299072265625t-1.085205078125,0.384521484375t-0.487060546875,1.016845703125q0,1.04248046875,0.73486328125,2.042236328125t1.614990234375,2.10205078125t1.614990234375,2.315673828125t0.73486328125,2.68310546875q0,0.63232421875-0.264892578125,1.068115234375t-0.70068359375,0.709228515625t-0.982666015625,0.418701171875t-1.0595703125,0.145263671875q-0.56396484375,0-1.31591796875-0.264892578125t-1.41845703125-0.70068359375t-1.119384765625-1.016845703125t-0.452880859375-1.21337890625q0-0.3076171875,0.435791015625-0.39306640625t0.640869140625-0.08544921875q0.1025390625,0,0.316162109375,0.068359375t0.418701171875,0.15380859375t0.367431640625,0.18798828125t0.128173828125,0.22216796875q0.1708984375,0.205078125,0.521240234375,0.606689453125t0.70068359375,0.6494140625t0.615234375,0.179443359375t0.264892578125-0.76904296875q0-1.3330078125-0.7177734375-2.452392578125t-1.563720703125-2.1875t-1.563720703125-2.119140625t-0.7177734375-2.247314453125z M74.62099609375,35.71533203125q0-1.572265625,0.367431640625-3.084716796875t0.623779296875-3.016357421875q0.068359375-0.39306640625,0.538330078125-0.487060546875t0.794677734375-0.093994140625q0.56396484375,0,0.90576171875,0.1708984375q0.13671875,0.068359375,0.25634765625,0.15380859375t0.11962890625,0.22216796875q0,1.4697265625-0.350341796875,2.87109375t-0.350341796875,2.9736328125q0,0.52978515625,0.076904296875,0.999755859375t0.145263671875,0.931396484375l0.1025390625,0.49560546875q0,0.13671875,0.01708984375,0.2392578125t0.05126953125,0.2392578125q0,0.3076171875-0.435791015625,0.418701171875t-0.760498046875,0.111083984375q-0.49560546875,0-0.914306640625-0.196533203125t-0.657958984375-0.675048828125l-0.2392578125-0.49560546875q-0.205078125-0.39306640625-0.205078125-0.880126953125t-0.08544921875-0.897216796875z M75.71474609375,25.42724609375l0-0.32470703125q0-0.80322265625,0.401611328125-1.435546875t1.204833984375-0.63232421875q0.1025390625,0,0.196533203125,0.01708984375t0.196533203125,0.01708984375q0.205078125,0.0341796875,0.538330078125,0.162353515625t0.333251953125,0.401611328125l0,0.0341796875q-0.068359375,0.13671875-0.08544921875,0.281982421875t-0.08544921875,0.247802734375l0.0341796875-0.0341796875q-0.205078125,0.52978515625-0.333251953125,0.8544921875t-0.281982421875,0.521240234375t-0.384521484375,0.281982421875t-0.657958984375,0.08544921875q-0.068359375,0-0.2392578125-0.01708984375t-0.367431640625-0.068359375t-0.333251953125-0.13671875t-0.13671875-0.25634765625z M81.382934570312,25.2734375q0-0.2392578125,0.5126953125-0.41015625t1.162109375-0.281982421875t1.256103515625-0.162353515625t0.828857421875-0.08544921875q0-0.46142578125,0.0341796875-0.931396484375t0.18798828125-0.83740234375t0.487060546875-0.589599609375t0.931396484375-0.22216796875q0.49560546875,0,0.751953125,0.11962890625t0.546875,0.49560546875q0.068359375,0.205078125,0.068359375,0.39306640625l0,0.572509765625t-0.0341796875,0.589599609375q0.63232421875-0.068359375,1.256103515625-0.162353515625t1.256103515625-0.093994140625q0.46142578125,0,0.63232421875,0.01708984375t0.341796875,0.41015625q0.13671875,0.39306640625-0.333251953125,0.59814453125t-1.1279296875,0.3076171875t-1.307373046875,0.15380859375t-0.7861328125,0.05126953125q-0.205078125,2.939453125-0.418701171875,5.82763671875t-0.213623046875,5.86181640625q0,1.3330078125,0.08544921875,2.75146484375t0.478515625,2.68310546875q0.1025390625,0.39306640625,0.341796875,0.73486328125t0.2392578125,0.73486328125q0,0.2392578125-0.18798828125,0.3759765625t-0.452880859375,0.230712890625t-0.52978515625,0.111083984375t-0.435791015625,0.01708984375q-1.07666015625,0-1.640625-0.80322265625t-0.811767578125-1.922607421875t-0.264892578125-2.298583984375t-0.01708984375-1.9140625q0-1.50390625,0.059814453125-3.076171875t0.145263671875-3.1103515625t0.2392578125-3.0078125t0.35888671875-2.734375q-0.59814453125,0.068359375-1.170654296875,0.15380859375t-1.170654296875,0.08544921875q-0.13671875,0-0.367431640625-0.01708984375t-0.435791015625-0.08544921875t-0.350341796875-0.18798828125t-0.145263671875-0.341796875z M94.451025390625,36.826171875q0-1.1962890625,0.264892578125-2.81982421875t0.897216796875-3.076171875t1.666259765625-2.469482421875t2.606201171875-1.016845703125q1.4697265625,0,2.20458984375,0.845947265625t0.73486328125,2.281494140625q0,0.93994140625-0.350341796875,2.059326171875t-0.999755859375,2.119140625t-1.5380859375,1.666259765625t-1.982421875,0.66650390625l-0.4443359375-0.0341796875q0,0.46142578125,0.13671875,1.239013671875t0.401611328125,1.546630859375t0.68359375,1.35009765625t1.016845703125,0.5810546875q0.87158203125,0,1.6748046875-0.70068359375t1.52099609375-1.55517578125t1.3330078125-1.55517578125t1.1279296875-0.70068359375q0.2734375,0,0.56396484375,0.08544921875t0.32470703125,0.478515625q0,0.2392578125-0.128173828125,0.39306640625t-0.230712890625,0.341796875q-0.52978515625,0.90576171875-1.153564453125,1.72607421875t-1.409912109375,1.48681640625t-1.717529296875,1.051025390625t-2.059326171875,0.384521484375q-1.4697265625,0-2.44384765625-0.521240234375t-1.572265625-1.4013671875t-0.863037109375-2.03369140625t-0.264892578125-2.418212890625z M97.510107421875,35.52734375l0.478515625,0.42724609375q0.341796875,0.3076171875,0.68359375,0.13671875t0.615234375-0.623779296875t0.504150390625-1.119384765625t0.41015625-1.3671875t0.264892578125-1.3671875t0.08544921875-1.11083984375l0-0.5810546875t-0.05126953125-0.615234375t-0.179443359375-0.487060546875t-0.401611328125-0.247802734375q-0.08544921875-0.01708984375-0.15380859375-0.01708984375q-0.5810546875,0-0.9912109375,0.73486328125q-0.4443359375,0.8203125-0.7177734375,1.990966796875t-0.39306640625,2.401123046875t-0.15380859375,1.845703125z"/><path fill="#" d=""/></svg>
